<svg version="1.1" id="Layer_1" xmlns="http://www.w3.org/2000/svg" xmlns:xlink="http://www.w3.org/1999/xlink" x="0px" y="0px"
	 width="100%" viewBox="0 0 324 73" enable-background="new 0 0 324 73" xml:space="preserve">
<path fill="#FDFEFE" opacity="1.000000" stroke="none" 
	d="
M234.000000,74.000000 
	C156.000031,74.000000 78.500046,74.000000 1.000052,74.000000 
	C1.000035,49.666698 1.000035,25.333395 1.000017,1.000068 
	C108.999939,1.000046 216.999878,1.000046 324.999878,1.000023 
	C324.999908,25.333265 324.999908,49.666531 324.999939,73.999893 
	C294.833344,74.000000 264.666656,74.000000 234.000000,74.000000 
M218.890396,24.884203 
	C218.890396,24.884203 218.854462,24.762465 218.327225,24.939442 
	C218.139648,25.247515 217.952072,25.555588 217.872467,25.859451 
	C217.872467,25.859451 217.802780,25.776894 217.207001,26.027344 
	C215.801651,27.695869 214.396301,29.364395 212.444641,31.300714 
	C211.887497,32.129833 211.330338,32.958950 210.851212,33.862629 
	C210.851212,33.862629 210.863342,33.755386 210.145966,34.032143 
	C208.415558,33.009895 206.685135,31.987648 205.039383,30.563126 
	C205.039383,30.563126 205.002701,30.153677 205.490906,29.840317 
	C205.773102,29.352661 206.055283,28.865007 206.361481,28.215025 
	C206.361481,28.215025 206.282013,28.358603 206.938828,28.172464 
	C207.708801,26.821165 208.478775,25.469866 209.145187,24.061905 
	C209.145187,24.061905 209.184860,24.173105 209.642624,23.780804 
	C209.408173,22.915512 209.173721,22.050220 208.599091,20.467987 
	C204.026794,19.966869 199.454483,19.465752 194.530228,19.066305 
	C194.299988,19.177996 194.134308,19.351377 193.499771,19.994036 
	C192.691544,20.341072 191.883301,20.688110 190.415787,20.949034 
	C189.590042,20.642267 188.764297,20.335503 188.000031,20.004799 
	C188.000031,20.004799 187.957703,20.055428 187.891510,19.681189 
	C187.604355,19.696138 187.317184,19.711088 186.295425,20.009848 
	C182.607925,20.342108 178.920425,20.674366 175.265884,21.003654 
	C175.591660,23.939125 176.534912,26.077864 175.844223,27.269669 
	C171.993118,33.914806 167.732468,40.321930 163.647476,46.832790 
	C162.911758,48.005432 162.342133,49.282299 161.695831,50.511047 
	C163.095581,50.983200 164.495331,51.455353 166.627304,52.263512 
	C170.900681,53.045715 175.298279,54.999119 179.627151,50.892590 
	C179.809784,50.839184 179.992432,50.785778 180.146774,50.827568 
	C180.146774,50.827568 180.233459,50.779099 180.265625,51.570892 
	C185.768433,54.596142 193.587219,52.357159 197.244614,46.369534 
	C197.865387,45.939640 198.486160,45.509747 199.637421,45.307346 
	C200.161423,45.548359 200.685410,45.789375 201.004639,46.639896 
	C201.304092,47.471638 201.603561,48.303379 202.085037,49.640690 
	C204.322449,46.889397 206.346741,44.748440 207.954834,42.330662 
	C209.783173,39.581791 211.957520,38.716068 215.086548,40.668503 
	C215.154694,41.106815 215.222839,41.545128 215.115707,42.489483 
	C215.161194,42.662102 215.206696,42.834724 215.099609,43.659534 
	C215.114792,44.103241 215.129974,44.546947 214.945679,45.601944 
	C215.205429,46.543808 215.465195,47.485672 215.724960,48.427536 
	C216.519882,47.859718 217.613525,47.456135 218.037750,46.684525 
	C218.632477,45.602741 218.729080,44.247101 218.994888,43.005375 
	C218.994888,43.005375 219.022980,43.039299 219.511734,42.700020 
	C219.702957,42.143848 219.894180,41.587677 220.015244,41.002407 
	C220.015244,41.002407 220.049393,41.070248 220.714584,40.836933 
	C222.165573,40.569942 223.616577,40.302952 225.008759,40.000618 
	C225.008759,40.000618 225.032791,40.064869 224.512543,40.140690 
	C224.354630,40.436501 224.196716,40.732311 223.491043,41.243057 
	C223.315292,41.791492 223.139526,42.339931 222.345245,43.242786 
	C221.931610,44.510605 221.517975,45.778423 221.028305,47.694511 
	C221.708786,48.758320 222.389282,49.822132 223.050583,51.687817 
	C225.914215,56.932747 230.239105,53.161163 232.690506,52.145973 
	C238.170853,49.876431 243.584717,49.887123 249.156311,49.933746 
	C249.156311,49.933746 249.105484,49.884373 249.016388,50.441689 
	C249.011932,50.628616 249.007462,50.815548 249.038666,51.809738 
	C249.756393,52.526535 250.590744,53.941231 251.172455,53.844025 
	C254.353729,53.312405 257.541656,52.613186 260.596191,51.582813 
	C264.452637,50.281929 268.182861,48.607006 272.820679,46.752262 
	C272.700409,46.546547 271.951782,45.266068 270.747345,43.399944 
	C268.847351,42.882496 266.947327,42.365044 264.926544,41.049767 
	C264.717773,40.557816 264.509003,40.065865 264.434570,39.440098 
	C264.434570,39.440098 264.589752,39.331150 265.344849,39.678421 
	C269.832306,39.507477 272.404510,37.314770 273.020874,32.874416 
	C273.020874,32.874416 272.704651,32.695168 273.416168,32.833260 
	C274.626434,31.587109 275.836700,30.340958 277.029358,29.013866 
	C277.029358,29.013866 277.100494,29.056271 277.856689,29.047266 
	C281.090881,28.741184 283.047058,27.235851 282.986938,23.058453 
	C284.082550,15.981426 278.574463,20.189438 275.769867,19.079361 
	C275.487335,19.131804 275.259216,19.272453 274.336700,19.826315 
	C272.537262,20.119186 270.737854,20.412058 268.465607,20.276320 
	C266.977631,20.494860 265.489655,20.713400 263.386963,21.244223 
	C262.339752,22.352699 261.292511,23.461176 260.117645,25.386566 
	C260.780121,27.338068 261.442566,29.289570 261.755493,31.797194 
	C257.722382,35.545067 253.689270,39.292942 249.342819,43.247562 
	C249.155502,43.428841 249.044891,43.648705 248.936203,44.360394 
	C248.865967,44.673546 248.703644,44.927929 247.655167,44.994862 
	C244.972321,42.664806 240.068451,42.187691 240.987335,36.998104 
	C240.987335,36.998104 240.919891,36.914749 241.684708,36.968227 
	C243.496307,36.228271 245.730087,35.918804 247.023422,34.650394 
	C249.115204,32.598904 250.588837,29.917091 252.455933,27.474106 
	C252.455933,27.474106 252.586823,27.440163 253.178787,27.590744 
	C253.307220,27.249798 253.435638,26.908852 253.672256,26.547327 
	C253.672256,26.547327 253.583633,26.481955 254.378632,26.759085 
	C255.179596,25.308090 255.980560,23.857096 256.717407,21.695854 
	C255.932724,20.815340 255.026749,19.091827 254.382095,19.184582 
	C247.865112,20.122265 241.388474,21.344168 234.911896,22.547562 
	C234.599533,22.605598 234.393295,23.234915 233.679123,24.249763 
	C237.016327,24.249763 239.833221,24.249763 242.650116,24.249763 
	C242.832031,24.653069 243.013947,25.056376 243.195862,25.459681 
	C238.457214,29.070129 233.718552,32.680576 228.849182,35.592949 
	C227.980423,34.277618 227.111664,32.962288 225.927002,31.110342 
	C227.091064,28.008480 228.413361,24.952713 229.337326,21.780909 
	C229.682068,20.597464 229.096771,19.143091 228.935547,17.812262 
	C227.647522,18.012802 226.044403,17.802496 225.136566,18.498747 
	C223.199493,19.984396 221.622849,21.939997 219.369537,23.929403 
	C219.167725,24.243458 218.965912,24.557514 218.890396,24.884203 
M149.920807,22.909431 
	C149.920807,22.909431 149.906326,22.812025 149.279541,22.928251 
	C148.518356,23.621264 147.757172,24.314278 147.001556,25.001575 
	C147.001556,25.001575 147.007278,24.995995 146.417572,25.219282 
	C145.607407,25.866871 144.797241,26.514462 143.343506,26.722507 
	C142.265656,24.104877 141.187820,21.487247 139.990906,18.914053 
	C139.990906,18.914053 140.114975,18.894001 139.731247,18.282101 
	C136.002716,16.125626 132.869446,17.394714 129.986160,19.998768 
	C129.986160,19.998768 129.982468,19.969006 129.257019,19.696920 
	C128.287552,19.182114 127.317192,18.222956 126.348747,18.224884 
	C120.234131,18.237036 114.111664,18.321762 108.009308,18.680408 
	C105.229996,18.843750 102.490662,19.687515 99.733200,20.222654 
	C99.699432,20.745136 99.665672,21.267620 99.631912,21.790104 
	C101.988655,22.837536 104.345398,23.884968 106.943169,25.039520 
	C103.629295,30.737514 100.186256,36.657616 96.197327,43.093815 
	C95.670586,44.938255 95.143845,46.782696 94.611664,48.646179 
	C98.404404,50.409168 101.278549,50.919407 102.231010,46.023132 
	C102.231010,46.023132 102.315315,46.287045 102.784019,46.029530 
	C102.880203,45.695530 102.976387,45.361530 103.000877,45.015190 
	C103.000877,45.015190 103.051498,45.067436 103.599876,44.693863 
	C104.114822,43.484215 104.629768,42.274567 105.044899,41.040512 
	C105.044899,41.040512 105.106232,41.122948 105.669556,40.744530 
	C106.373009,38.855434 107.076462,36.966343 108.118698,34.756111 
	C108.118698,34.756111 108.153465,34.290611 108.727493,33.935436 
	C109.162376,32.951176 109.597260,31.966917 110.250793,30.783403 
	C110.250793,30.783403 110.181801,30.495741 110.753174,30.088186 
	C111.328514,29.128874 111.903862,28.169559 112.786362,26.929087 
	C112.953598,26.692633 113.029152,26.429825 113.499641,25.821365 
	C114.001930,25.236351 114.504219,24.651337 115.905365,24.120907 
	C119.230743,24.377806 122.556114,24.634705 125.912338,24.924328 
	C125.912338,24.924328 125.915169,24.886948 125.331703,25.241190 
	C124.161804,27.787104 122.991898,30.333019 121.907410,32.925926 
	C121.907410,32.925926 121.897804,32.828915 121.396034,33.013561 
	C121.310089,33.336418 121.224152,33.659271 120.954018,34.757221 
	C120.350021,37.497089 119.746025,40.236958 118.995468,43.754288 
	C119.804947,45.968792 120.614426,48.183296 121.543556,50.494888 
	C121.543556,50.494888 121.672729,50.578896 122.019547,51.192543 
	C127.722458,52.928146 132.203171,50.435112 137.024109,42.731613 
	C138.366547,40.546440 139.515808,38.202763 141.127487,36.238503 
	C142.022736,35.147411 143.689606,34.689430 144.985458,34.687256 
	C144.855240,36.124924 144.725021,37.562595 144.040222,39.481243 
	C142.871841,41.478668 141.356735,43.361923 140.649002,45.511051 
	C140.119720,47.118301 140.631622,49.068428 140.679901,50.865887 
	C142.157227,50.063618 144.025635,49.588078 145.027603,48.388702 
	C146.912857,46.132030 148.298141,43.457691 150.755325,40.979931 
	C154.885361,39.708012 159.015411,38.436089 163.845291,37.063900 
	C164.957535,36.440044 166.069794,35.816189 167.772980,34.977718 
	C168.190430,34.322231 168.607864,33.666740 169.261871,32.318668 
	C173.439590,25.024204 173.027634,22.677912 166.107071,19.038103 
	C161.087311,20.038197 156.067535,21.038290 151.017059,21.994104 
	C151.017059,21.994104 151.024551,22.046734 150.479462,22.066328 
	C150.261292,22.339842 150.043121,22.613358 149.920807,22.909431 
M62.735477,32.401619 
	C57.089092,30.552191 51.442707,28.702763 45.502125,26.756973 
	C47.170155,19.723810 48.747593,13.072612 50.325035,6.421415 
	C49.914360,6.193543 49.503685,5.965671 49.093010,5.737799 
	C38.977070,14.220745 28.861135,22.703691 18.187777,31.654076 
	C24.921755,33.291290 30.956766,34.758564 37.206520,36.278049 
	C34.981518,44.010067 32.881001,51.309486 30.780481,58.608906 
	C31.243387,58.865509 31.706293,59.122116 32.169197,59.378719 
	C42.342587,50.626106 52.515976,41.873493 62.735477,32.401619 
M247.586044,37.516979 
	C247.586044,37.516979 247.477371,37.581322 247.586044,37.516979 
z"/>
<path fill="#543EED" opacity="1.000000" stroke="none" 
	d="
M62.712418,32.761250 
	C52.515976,41.873493 42.342587,50.626106 32.169197,59.378719 
	C31.706293,59.122116 31.243387,58.865509 30.780481,58.608906 
	C32.881001,51.309486 34.981518,44.010067 37.206520,36.278049 
	C30.956766,34.758564 24.921755,33.291290 18.187777,31.654076 
	C28.861135,22.703691 38.977070,14.220745 49.093010,5.737799 
	C49.503685,5.965671 49.914360,6.193543 50.325035,6.421415 
	C48.747593,13.072612 47.170155,19.723810 45.502125,26.756973 
	C51.442707,28.702763 57.089092,30.552191 62.712418,32.761250 
z"/>
<path fill="#3D50E7" opacity="1.000000" stroke="none" 
	d="
M191.075073,21.035147 
	C191.883301,20.688110 192.691544,20.341072 193.962402,19.782032 
	C194.686386,19.450544 194.838760,19.248747 194.882187,18.964634 
	C199.454483,19.465752 204.026794,19.966869 208.778229,21.200512 
	C209.033203,22.679728 209.109024,23.426416 209.184845,24.173105 
	C209.184860,24.173105 209.145187,24.061905 208.862183,24.178383 
	C207.813461,25.649441 207.047729,27.004021 206.282013,28.358601 
	C206.282013,28.358603 206.361481,28.215025 206.015732,28.174049 
	C205.437119,28.094849 205.204269,28.056620 204.593353,28.017483 
	C203.459778,27.993160 202.704269,27.969746 202.131744,27.664097 
	C203.211227,26.564423 204.107712,25.746983 205.004196,24.929541 
	C196.690323,25.944454 196.690323,25.944454 195.720795,30.497120 
	C197.805756,29.639631 199.880310,28.786415 201.928955,28.269657 
	C200.902832,31.083570 199.902634,33.561024 198.665222,35.761406 
	C193.757919,33.888317 190.996185,37.116432 190.107468,43.654369 
	C193.016052,41.324677 195.924652,38.994984 198.985947,36.986732 
	C200.105255,37.882339 201.071838,38.456509 202.039215,39.417023 
	C202.065033,40.317944 202.090057,40.832520 201.967957,41.606781 
	C200.916229,42.937599 200.011581,44.008732 199.106949,45.079857 
	C198.486160,45.509747 197.865387,45.939640 196.702972,46.659981 
	C191.553558,51.145115 185.617477,49.813766 180.233459,50.779099 
	C180.233459,50.779099 180.146774,50.827568 180.083755,50.533340 
	C179.712509,50.123905 179.404297,50.008698 179.051163,49.904045 
	C179.006256,49.914604 179.095322,49.915695 179.064728,49.586967 
	C178.961823,48.824596 178.889526,48.390957 178.881012,47.585705 
	C179.571732,45.519783 180.072769,43.765427 180.847351,42.141548 
	C184.213104,35.085342 187.658569,28.067150 191.075073,21.035147 
z"/>
<path fill="#3E50E5" opacity="1.000000" stroke="none" 
	d="
M222.963776,42.888367 
	C223.139526,42.339931 223.315292,41.791492 223.991302,41.046425 
	C224.775635,40.659630 224.956039,40.397991 225.032791,40.064869 
	C225.032791,40.064869 225.008759,40.000618 225.370361,39.993813 
	C226.814621,38.755013 227.897247,37.523018 228.979889,36.291023 
	C233.718552,32.680576 238.457214,29.070129 243.195862,25.459681 
	C243.013947,25.056376 242.832031,24.653069 242.650116,24.249763 
	C239.833221,24.249763 237.016327,24.249763 233.679123,24.249763 
	C234.393295,23.234915 234.599533,22.605598 234.911896,22.547562 
	C241.388474,21.344168 247.865112,20.122265 254.382095,19.184582 
	C255.026749,19.091827 255.932724,20.815340 256.486023,22.267628 
	C255.364334,24.053587 254.473984,25.267775 253.583649,26.481956 
	C253.583633,26.481955 253.672256,26.547327 253.388123,26.613724 
	C252.796402,26.841494 252.624008,27.094841 252.586823,27.440163 
	C252.586823,27.440163 252.455933,27.474106 252.090134,27.562771 
	C248.122864,30.739208 244.521378,33.826981 240.919891,36.914749 
	C240.919891,36.914749 240.987335,36.998104 240.622620,37.047707 
	C238.441864,38.696632 236.625824,40.295959 234.161499,42.466198 
	C238.023880,42.950375 240.484894,43.258881 242.945923,43.567390 
	C237.280823,47.132271 231.543686,49.608921 225.726990,51.882053 
	C225.071167,52.138348 223.966370,51.245766 223.069763,50.885944 
	C222.389282,49.822132 221.708786,48.758320 221.414276,47.268883 
	C222.188080,45.524960 222.575928,44.206661 222.963776,42.888367 
z"/>
<path fill="#3C4FE8" opacity="1.000000" stroke="none" 
	d="
M265.047333,41.847595 
	C266.947327,42.365044 268.847351,42.882496 270.908142,44.097034 
	C264.991852,47.164379 258.935211,49.590721 252.809250,51.827106 
	C252.117828,52.079525 251.035202,51.260281 250.027679,50.698299 
	C249.649429,50.267208 249.377457,50.075794 249.105484,49.884377 
	C249.105484,49.884373 249.156311,49.933746 249.100250,49.554626 
	C248.845856,47.824848 248.647537,46.474197 248.449219,45.123547 
	C248.703644,44.927929 248.865967,44.673546 249.154297,44.053627 
	C249.603653,43.566475 249.698242,43.331131 249.656158,43.040821 
	C253.689270,39.292942 257.722382,35.545067 262.264771,31.425093 
	C265.189392,28.670607 267.604767,26.288219 269.788025,23.640308 
	C268.012817,23.138065 266.469727,22.901346 264.763397,22.639591 
	C265.245697,22.066236 265.634674,21.603790 266.386536,21.075611 
	C267.479095,20.908232 268.208740,20.806581 268.938416,20.704929 
	C270.737854,20.412058 272.537262,20.119186 274.922485,19.699726 
	C275.812775,19.515987 276.036865,19.350134 276.180603,19.075579 
	C278.574463,20.189438 284.082550,15.981426 282.630554,23.553593 
	C280.549622,25.717911 278.825043,27.387089 277.100494,29.056271 
	C277.100494,29.056271 277.029358,29.013866 276.693054,29.053648 
	C275.139404,30.294006 273.922028,31.494583 272.704651,32.695164 
	C272.704651,32.695168 273.020874,32.874416 272.541016,32.894150 
	C269.570709,35.052967 267.080231,37.192055 264.589752,39.331146 
	C264.589752,39.331150 264.434570,39.440098 264.092590,39.631134 
	C263.029388,40.119465 262.308105,40.416763 261.586853,40.714062 
	C261.875092,41.091908 262.163361,41.469749 262.451599,41.847595 
	C263.316864,41.847595 264.182098,41.847595 265.047333,41.847595 
z"/>
<path fill="#4757E1" opacity="1.000000" stroke="none" 
	d="
M165.895081,51.927505 
	C164.495331,51.455353 163.095581,50.983200 161.695831,50.511047 
	C162.342133,49.282299 162.911758,48.005432 163.647476,46.832790 
	C167.732468,40.321930 171.993118,33.914806 175.844223,27.269669 
	C176.534912,26.077864 175.591660,23.939125 175.265884,21.003654 
	C178.920425,20.674366 182.607925,20.342108 186.886444,19.973446 
	C187.477463,19.937044 187.957703,20.055428 187.957703,20.055428 
	C187.957703,20.055428 188.000031,20.004799 187.758972,20.284714 
	C187.060638,20.756222 186.367691,20.818243 186.180695,21.158401 
	C181.741104,29.234627 177.355911,37.340752 172.869843,45.609039 
	C174.463272,46.529736 175.734406,47.264214 177.043030,48.331177 
	C177.052872,49.108135 177.025223,49.552616 176.574249,50.043579 
	C172.732300,50.702545 169.313690,51.315025 165.895081,51.927505 
z"/>
<path fill="#3D4FE3" opacity="1.000000" stroke="none" 
	d="
M96.743217,42.577717 
	C100.186256,36.657616 103.629295,30.737514 106.943169,25.039520 
	C104.345398,23.884968 101.988655,22.837536 99.631912,21.790104 
	C99.665672,21.267620 99.699432,20.745136 99.733200,20.222654 
	C102.490662,19.687515 105.229996,18.843750 108.009308,18.680408 
	C114.111664,18.321762 120.234131,18.237036 126.348747,18.224884 
	C127.317192,18.222956 128.287552,19.182114 129.625824,20.217936 
	C130.243912,23.728077 128.531464,24.774139 125.881493,24.891602 
	C122.556114,24.634705 119.230743,24.377806 115.447601,23.828621 
	C114.983772,23.359703 114.977707,23.183071 115.224716,22.726002 
	C118.815277,22.098215 122.152756,21.750862 125.490234,21.403509 
	C125.473343,21.165525 125.456451,20.927544 125.439560,20.689560 
	C118.496758,20.689560 111.553955,20.689560 105.837769,20.689560 
	C107.496704,22.726665 109.270645,24.904993 110.996918,27.432644 
	C110.693443,28.686558 110.437622,29.591150 110.181808,30.495743 
	C110.181801,30.495741 110.250793,30.783403 109.846100,31.034657 
	C109.012100,32.287479 108.582779,33.289043 108.153465,34.290611 
	C108.153465,34.290611 108.118698,34.756111 107.685867,35.098991 
	C106.537445,37.335567 105.821838,39.229259 105.106232,41.122948 
	C105.106232,41.122948 105.044899,41.040512 104.763321,41.179497 
	C104.004990,42.568130 103.528244,43.817783 103.051498,45.067436 
	C103.051498,45.067436 103.000877,45.015190 102.793457,45.146767 
	C102.495804,45.614574 102.405556,45.950809 102.315315,46.287045 
	C102.315315,46.287045 102.231010,46.023132 101.922607,46.189827 
	C100.016663,46.955948 98.419121,47.555374 96.443153,48.296795 
	C96.579483,45.698387 96.661346,44.138054 96.743217,42.577717 
z"/>
<path fill="#3A4DEB" opacity="1.000000" stroke="none" 
	d="
M219.898529,23.703047 
	C221.622849,21.939997 223.199493,19.984396 225.136566,18.498747 
	C226.044403,17.802496 227.647522,18.012802 228.935547,17.812260 
	C229.096771,19.143091 229.682068,20.597464 229.337326,21.780909 
	C228.413361,24.952713 227.091064,28.008480 226.032196,31.785992 
	C225.291763,33.893345 224.537460,35.390125 223.576187,36.739452 
	C222.498230,38.252609 221.233078,39.632416 220.049393,41.070244 
	C220.049393,41.070248 220.015244,41.002407 219.769592,41.153740 
	C219.356964,41.883148 219.189972,42.461224 219.022980,43.039299 
	C219.022980,43.039299 218.994888,43.005375 218.727448,43.144970 
	C217.355057,43.853260 216.250107,44.421959 215.145142,44.990654 
	C215.129974,44.546947 215.114792,44.103241 215.321167,43.240616 
	C215.590912,42.717712 215.706650,42.579716 215.674622,42.516121 
	C215.577423,42.323116 215.423080,42.158878 215.290985,41.983437 
	C215.222839,41.545128 215.154694,41.106815 215.183853,40.094208 
	C212.740326,38.997227 210.199493,38.474545 207.712555,37.772942 
	C207.766434,37.594021 207.844284,37.229618 207.999969,36.927528 
	C209.058228,35.668758 209.960785,34.712070 210.863342,33.755386 
	C210.863342,33.755386 210.851212,33.862629 211.112488,33.889709 
	C211.577637,33.931259 211.781525,33.945732 212.300903,34.105385 
	C217.786804,36.666367 218.836700,36.059547 218.711090,30.471251 
	C218.675766,28.900454 218.119888,27.341356 217.802780,25.776894 
	C217.802780,25.776894 217.872467,25.859451 218.095642,25.790440 
	C218.497360,25.401775 218.675919,25.082123 218.854462,24.762466 
	C218.854462,24.762465 218.890396,24.884203 219.111664,24.792059 
	C219.521469,24.367624 219.710007,24.035334 219.898529,23.703047 
z"/>
<path fill="#354AF1" opacity="1.000000" stroke="none" 
	d="
M125.896912,24.907965 
	C128.531464,24.774139 130.243912,23.728077 129.988541,20.353977 
	C129.982468,19.969006 129.986160,19.998768 130.403168,20.001022 
	C133.918427,19.633518 137.016708,19.263760 140.114975,18.894001 
	C140.114975,18.894001 139.990906,18.914053 140.013275,19.300203 
	C141.033691,23.126053 142.031738,26.565750 143.022339,30.325367 
	C142.987671,31.070213 142.960403,31.495142 142.609299,31.997463 
	C141.252991,33.049423 140.220520,34.023987 138.916534,35.254860 
	C139.288330,33.274101 139.966080,31.498085 139.834045,29.784466 
	C139.729034,28.421583 138.634399,27.134951 137.796692,25.718678 
	C137.375946,25.479532 137.156937,25.311039 136.891266,24.935272 
	C136.569794,24.877951 136.314316,25.002760 136.030960,25.079531 
	C136.003098,25.031490 136.093063,25.096636 135.771057,25.059914 
	C135.008209,25.419935 134.567352,25.816683 134.107498,26.163879 
	C134.088486,26.114332 134.189240,26.147728 133.918884,26.206066 
	C133.500580,26.582741 133.352646,26.901075 133.131180,27.166225 
	C133.057632,27.113043 133.230957,27.166988 132.938965,27.275753 
	C132.518143,27.762196 132.389297,28.139872 132.236130,28.646790 
	C132.211807,28.776033 132.007996,28.942295 131.739731,29.120472 
	C131.353363,29.902977 131.235245,30.507305 131.081543,31.077141 
	C131.045944,31.042648 131.145020,31.045784 130.863571,31.227211 
	C129.063995,33.294144 127.545868,35.179649 126.019073,37.031578 
	C126.010414,36.998001 126.054443,37.051731 125.710342,37.063133 
	C125.004974,37.792843 124.643715,38.511147 124.234207,39.258003 
	C124.185959,39.286556 124.297844,39.279293 123.972183,39.228840 
	C123.745789,41.786991 123.845055,44.395592 124.056412,47.262344 
	C124.483017,47.982113 124.797523,48.443737 124.869034,49.210449 
	C123.641602,49.869991 122.657166,50.224442 121.672729,50.578896 
	C121.672729,50.578896 121.543556,50.494888 121.643326,50.058395 
	C120.876068,47.406879 120.009048,45.191853 119.142029,42.976826 
	C119.746025,40.236958 120.350021,37.497089 121.245438,34.232376 
	C121.776833,33.463844 121.897148,33.170971 121.897804,32.828915 
	C121.897804,32.828915 121.907410,32.925926 122.247787,32.904907 
	C123.697166,30.218243 124.806168,27.552595 125.915169,24.886948 
	C125.915169,24.886948 125.912338,24.924328 125.896912,24.907965 
z"/>
<path fill="#EBECF9" opacity="1.000000" stroke="none" 
	d="
M177.005539,47.998688 
	C175.734406,47.264214 174.463272,46.529736 172.869843,45.609039 
	C177.355911,37.340752 181.741104,29.234627 186.180695,21.158401 
	C186.367691,20.818243 187.060638,20.756222 187.728226,20.296684 
	C188.764297,20.335503 189.590042,20.642267 190.745422,20.992088 
	C187.658569,28.067150 184.213104,35.085342 180.847351,42.141548 
	C180.072769,43.765427 179.571732,45.519783 178.579773,47.596962 
	C177.811676,47.986115 177.408615,47.992401 177.005539,47.998688 
z"/>
<path fill="#354AF3" opacity="1.000000" stroke="none" 
	d="
M166.980057,19.322472 
	C173.027634,22.677912 173.439590,25.024204 168.843201,32.712929 
	C168.019638,33.093414 167.614746,33.079639 166.933868,33.124889 
	C166.175781,32.134586 165.693649,31.085251 165.179306,29.695045 
	C165.162643,28.898264 165.178192,28.442348 165.336105,27.887947 
	C165.355560,27.534704 165.232651,27.279945 164.868408,26.700264 
	C159.719315,23.728006 153.242920,24.793591 147.846008,28.862083 
	C147.369156,27.422974 147.188217,26.209484 147.007278,24.995995 
	C147.007278,24.995995 147.001556,25.001575 147.330231,24.982944 
	C148.408035,24.246885 149.157181,23.529457 149.906326,22.812027 
	C149.906326,22.812025 149.920807,22.909431 150.131592,22.856461 
	C150.569748,22.551235 150.797150,22.298983 151.024551,22.046732 
	C151.024551,22.046734 151.017059,21.994104 151.443481,22.019630 
	C156.906631,21.137594 161.943344,20.230034 166.980057,19.322472 
z"/>
<path fill="#4857DE" opacity="1.000000" stroke="none" 
	d="
M149.891296,40.956993 
	C148.298141,43.457691 146.912857,46.132030 145.027603,48.388702 
	C144.025635,49.588078 142.157227,50.063618 140.679901,50.865883 
	C140.631622,49.068428 140.119720,47.118301 140.649002,45.511051 
	C141.356735,43.361923 142.871841,41.478668 144.605042,39.137398 
	C146.115295,36.628155 147.060745,34.462753 148.402695,32.234917 
	C150.235550,32.172485 151.671906,32.172485 152.215500,32.172485 
	C153.425323,33.888329 154.212341,35.004539 155.004486,36.460312 
	C155.028427,37.252296 155.047272,37.704723 154.867798,38.447075 
	C153.076767,39.477001 151.484024,40.216999 149.891296,40.956993 
z"/>
<path fill="#F2F3F9" opacity="1.000000" stroke="none" 
	d="
M248.052185,45.059204 
	C248.647537,46.474197 248.845856,47.824848 249.105881,49.519650 
	C243.584717,49.887123 238.170853,49.876431 232.690506,52.145973 
	C230.239105,53.161163 225.914215,56.932747 223.060181,51.286880 
	C223.966370,51.245766 225.071167,52.138348 225.726990,51.882053 
	C231.543686,49.608921 237.280823,47.132271 242.945923,43.567390 
	C240.484894,43.258881 238.023880,42.950375 234.161499,42.466198 
	C236.625824,40.295959 238.441864,38.696632 240.585815,37.005768 
	C240.068451,42.187691 244.972321,42.664806 248.052185,45.059204 
z"/>
<path fill="#F2EFEE" opacity="1.000000" stroke="none" 
	d="
M250.133972,50.937981 
	C251.035202,51.260281 252.117828,52.079525 252.809250,51.827106 
	C258.935211,49.590721 264.991852,47.164379 271.136047,44.389854 
	C271.951782,45.266068 272.700409,46.546547 272.820679,46.752262 
	C268.182861,48.607006 264.452637,50.281929 260.596191,51.582813 
	C257.541656,52.613186 254.353729,53.312405 251.172455,53.844025 
	C250.590744,53.941231 249.756393,52.526535 249.304016,51.398529 
	C249.757568,50.970875 249.945770,50.954426 250.133972,50.937981 
z"/>
<path fill="#3349F7" opacity="1.000000" stroke="none" 
	d="
M111.044586,27.083319 
	C109.270645,24.904993 107.496704,22.726665 105.837769,20.689560 
	C111.553955,20.689560 118.496758,20.689560 125.439560,20.689560 
	C125.456451,20.927544 125.473343,21.165525 125.490234,21.403509 
	C122.152756,21.750862 118.815277,22.098215 114.929504,22.872904 
	C113.925148,24.247047 113.469078,25.193853 113.013016,26.140659 
	C113.029152,26.429825 112.953598,26.692633 112.275894,27.014156 
	C111.525146,27.093922 111.284866,27.088619 111.044586,27.083319 
z"/>
<path fill="#5260D8" opacity="1.000000" stroke="none" 
	d="
M137.979111,25.814468 
	C138.634399,27.134951 139.729034,28.421583 139.834045,29.784466 
	C139.966080,31.498085 139.288330,33.274101 138.916534,35.254860 
	C140.220520,34.023987 141.252991,33.049423 142.885284,32.119961 
	C143.992996,32.758743 144.500839,33.352421 145.008698,33.946098 
	C143.689606,34.689430 142.022736,35.147411 141.127487,36.238503 
	C139.515808,38.202763 138.366547,40.546440 136.348572,42.893322 
	C134.828873,43.046124 133.984695,43.037212 133.245453,42.700897 
	C136.744324,37.371223 139.356384,32.150410 137.979111,25.814468 
z"/>
<path fill="#4F5DCE" opacity="1.000000" stroke="none" 
	d="
M207.658661,37.951859 
	C210.199493,38.474545 212.740326,38.997227 215.133148,39.765053 
	C211.957520,38.716068 209.783173,39.581791 207.954834,42.330662 
	C206.346741,44.748440 204.322449,46.889397 202.085037,49.640690 
	C201.603561,48.303379 201.304092,47.471638 201.402237,46.193649 
	C203.752777,43.148891 205.705719,40.550377 207.658661,37.951859 
z"/>
<path fill="#4C58C9" opacity="1.000000" stroke="none" 
	d="
M133.140518,43.028301 
	C133.984695,43.037212 134.828873,43.046124 136.095886,43.090164 
	C132.203171,50.435112 127.722458,52.928146 121.846138,50.885719 
	C122.657166,50.224442 123.641602,49.869991 125.217224,49.213020 
	C128.252441,46.949768 130.696472,44.989033 133.140518,43.028301 
z"/>
<path fill="#4554D9" opacity="1.000000" stroke="none" 
	d="
M217.504883,25.902119 
	C218.119888,27.341356 218.675766,28.900454 218.711090,30.471251 
	C218.836700,36.059547 217.786804,36.666367 212.429779,33.819580 
	C212.492416,32.603371 212.741684,31.818150 212.990952,31.032925 
	C214.396301,29.364395 215.801651,27.695869 217.504883,25.902119 
z"/>
<path fill="#CDCFEF" opacity="1.000000" stroke="none" 
	d="
M180.249542,51.174995 
	C185.617477,49.813766 191.553558,51.145115 196.523224,46.881081 
	C193.587219,52.357159 185.768433,54.596142 180.249542,51.174995 
z"/>
<path fill="#F2F3F9" opacity="1.000000" stroke="none" 
	d="
M270.020142,23.905838 
	C267.604767,26.288219 265.189392,28.670607 262.439514,31.147030 
	C261.442566,29.289570 260.780121,27.338068 260.511597,25.147900 
	C261.780060,25.195375 262.724335,25.848112 263.515839,25.697594 
	C265.717896,25.278833 267.856476,24.526451 270.020142,23.905838 
z"/>
<path fill="#3648FC" opacity="1.000000" stroke="none" 
	d="
M202.038422,39.030678 
	C201.071838,38.456509 200.105255,37.882339 198.958130,36.825386 
	C198.777588,36.342598 198.902451,36.038479 198.902451,36.038479 
	C199.902634,33.561024 200.902832,31.083570 201.954895,28.296188 
	C202.006790,27.986258 201.948761,27.946331 201.948761,27.946331 
	C202.704269,27.969746 203.459778,27.993160 204.584702,28.372986 
	C204.970322,29.204159 204.986511,29.678917 205.002701,30.153677 
	C205.002701,30.153677 205.039383,30.563126 204.723572,30.915407 
	C203.617981,33.855354 202.828201,36.443020 202.038422,39.030678 
z"/>
<path fill="#4A58D9" opacity="1.000000" stroke="none" 
	d="
M144.997070,34.316677 
	C144.500839,33.352421 143.992996,32.758743 143.209137,32.042568 
	C142.960403,31.495142 142.987671,31.070213 143.273132,30.132204 
	C143.683258,28.800098 143.835175,27.981075 143.987076,27.162052 
	C144.797241,26.514462 145.607407,25.866871 146.712433,25.107639 
	C147.188217,26.209484 147.369156,27.422974 147.781311,29.175350 
	C148.010406,30.575277 148.008301,31.436314 148.006195,32.297352 
	C147.060745,34.462753 146.115295,36.628155 144.882324,38.896912 
	C144.725021,37.562595 144.855240,36.124924 144.997070,34.316677 
z"/>
<path fill="#4F5DCE" opacity="1.000000" stroke="none" 
	d="
M202.039215,39.417023 
	C202.828201,36.443020 203.617981,33.855354 204.681244,31.116547 
	C206.685135,31.987648 208.415558,33.009895 210.504654,33.893761 
	C209.960785,34.712070 209.058228,35.668758 207.657043,36.880074 
	C205.477310,38.538834 203.796188,39.942963 202.115051,41.347095 
	C202.090057,40.832520 202.065033,40.317944 202.039215,39.417023 
z"/>
<path fill="#6065D1" opacity="1.000000" stroke="none" 
	d="
M220.381989,40.953590 
	C221.233078,39.632416 222.498230,38.252609 223.576187,36.739452 
	C224.537460,35.390125 225.291763,33.893345 226.190155,32.054298 
	C227.111664,32.962288 227.980423,34.277618 228.914536,35.941986 
	C227.897247,37.523018 226.814621,38.755013 225.399780,40.011482 
	C223.616577,40.302952 222.165573,40.569942 220.381989,40.953590 
z"/>
<path fill="#EBECF9" opacity="1.000000" stroke="none" 
	d="
M166.261200,52.095505 
	C169.313690,51.315025 172.732300,50.702545 176.924332,50.057541 
	C178.163605,49.988571 178.629471,49.952133 179.095322,49.915695 
	C179.095322,49.915695 179.006256,49.914604 179.027191,50.166588 
	C179.051636,50.594040 179.055176,50.769516 179.058701,50.944988 
	C175.298279,54.999119 170.900681,53.045715 166.261200,52.095505 
z"/>
<path fill="#F2F3F9" opacity="1.000000" stroke="none" 
	d="
M241.302307,36.941490 
	C244.521378,33.826981 248.122864,30.739208 252.023926,27.576448 
	C250.588837,29.917091 249.115204,32.598904 247.023422,34.650394 
	C245.730087,35.918804 243.496307,36.228271 241.302307,36.941490 
z"/>
<path fill="#E0DCE8" opacity="1.000000" stroke="none" 
	d="
M150.323303,40.968460 
	C151.484024,40.216999 153.076767,39.477001 155.256454,38.376240 
	C158.169907,37.601421 160.496399,37.187366 162.903091,36.871384 
	C162.983292,36.969456 163.145447,37.164169 163.145447,37.164169 
	C159.015411,38.436089 154.885361,39.708012 150.323303,40.968460 
z"/>
<path fill="#E1E1F0" opacity="1.000000" stroke="none" 
	d="
M264.967285,39.504784 
	C267.080231,37.192055 269.570709,35.052967 272.378571,32.814194 
	C272.404510,37.314770 269.832306,39.507477 264.967285,39.504784 
z"/>
<path fill="#5C67D0" opacity="1.000000" stroke="none" 
	d="
M96.470276,42.835766 
	C96.661346,44.138054 96.579483,45.698387 96.443153,48.296795 
	C98.419121,47.555374 100.016663,46.955948 101.987137,46.312408 
	C101.278549,50.919407 98.404404,50.409168 94.611664,48.646179 
	C95.143845,46.782696 95.670586,44.938255 96.470276,42.835766 
z"/>
<path fill="#CDCFEF" opacity="1.000000" stroke="none" 
	d="
M201.967957,41.606781 
	C203.796188,39.942963 205.477310,38.538834 207.501358,37.182163 
	C207.844284,37.229618 207.766434,37.594021 207.712555,37.772942 
	C205.705719,40.550377 203.752777,43.148891 201.504623,45.888893 
	C200.685410,45.789375 200.161423,45.548359 199.372192,45.193604 
	C200.011581,44.008732 200.916229,42.937599 201.967957,41.606781 
z"/>
<path fill="#5B64D0" opacity="1.000000" stroke="none" 
	d="
M269.788025,23.640312 
	C267.856476,24.526451 265.717896,25.278833 263.515839,25.697594 
	C262.724335,25.848112 261.780060,25.195375 260.575409,24.739441 
	C261.292511,23.461176 262.339752,22.352699 264.030426,21.137009 
	C265.123810,21.066978 265.573761,21.104158 266.023682,21.141340 
	C265.634674,21.603790 265.245697,22.066236 264.763397,22.639591 
	C266.469727,22.901346 268.012817,23.138065 269.788025,23.640312 
z"/>
<path fill="#4A58D9" opacity="1.000000" stroke="none" 
	d="
M166.543564,19.180286 
	C161.943344,20.230034 156.906631,21.137594 151.458847,22.041771 
	C156.067535,21.038290 161.087311,20.038197 166.543564,19.180286 
z"/>
<path fill="#3D4FE3" opacity="1.000000" stroke="none" 
	d="
M143.665283,26.942280 
	C143.835175,27.981075 143.683258,28.800098 143.280563,29.812284 
	C142.031738,26.565750 141.033691,23.126053 140.072815,19.277985 
	C141.187820,21.487247 142.265656,24.104877 143.665283,26.942280 
z"/>
<path fill="#6065D1" opacity="1.000000" stroke="none" 
	d="
M215.045410,45.296303 
	C216.250107,44.421959 217.355057,43.853260 218.749390,43.146591 
	C218.729080,44.247101 218.632477,45.602741 218.037750,46.684525 
	C217.613525,47.456135 216.519882,47.859718 215.724960,48.427536 
	C215.465195,47.485672 215.205429,46.543808 215.045410,45.296303 
z"/>
<path fill="#3D4FE3" opacity="1.000000" stroke="none" 
	d="
M125.623436,25.064068 
	C124.806168,27.552595 123.697166,30.218243 122.205078,32.881409 
	C122.991898,30.333019 124.161804,27.787104 125.623436,25.064068 
z"/>
<path fill="#3D4FE3" opacity="1.000000" stroke="none" 
	d="
M139.923111,18.588051 
	C137.016708,19.263760 133.918427,19.633518 130.392456,19.991253 
	C132.869446,17.394714 136.002716,16.125626 139.923111,18.588051 
z"/>
<path fill="#4C58C9" opacity="1.000000" stroke="none" 
	d="
M119.068748,43.365555 
	C120.009048,45.191853 120.876068,47.406879 121.583496,50.009853 
	C120.614426,48.183296 119.804947,45.968792 119.068748,43.365555 
z"/>
<path fill="#E1E1F0" opacity="1.000000" stroke="none" 
	d="
M277.478577,29.051767 
	C278.825043,27.387089 280.549622,25.717911 282.566040,23.883099 
	C283.047058,27.235851 281.090881,28.741184 277.478577,29.051767 
z"/>
<path fill="#E1E1F0" opacity="1.000000" stroke="none" 
	d="
M273.060425,32.764210 
	C273.922028,31.494583 275.139404,30.294006 276.701843,29.094118 
	C275.836700,30.340958 274.626434,31.587109 273.060425,32.764210 
z"/>
<path fill="#5C67D0" opacity="1.000000" stroke="none" 
	d="
M105.387894,40.933739 
	C105.821838,39.229259 106.537445,37.335567 107.516479,35.259560 
	C107.076462,36.966343 106.373009,38.855434 105.387894,40.933739 
z"/>
<path fill="#F2F3F9" opacity="1.000000" stroke="none" 
	d="
M253.981140,26.620522 
	C254.473984,25.267775 255.364334,24.053587 256.518097,22.622753 
	C255.980560,23.857096 255.179596,25.308090 253.981140,26.620522 
z"/>
<path fill="#4F5DCE" opacity="1.000000" stroke="none" 
	d="
M206.610413,28.265533 
	C207.047729,27.004021 207.813461,25.649441 208.913971,24.206713 
	C208.478775,25.469866 207.708801,26.821165 206.610413,28.265533 
z"/>
<path fill="#6065D1" opacity="1.000000" stroke="none" 
	d="
M222.654510,43.065575 
	C222.575928,44.206661 222.188080,45.524960 221.452301,46.944748 
	C221.517975,45.778423 221.931610,44.510605 222.654510,43.065575 
z"/>
<path fill="#F2F3F9" opacity="1.000000" stroke="none" 
	d="
M266.386536,21.075609 
	C265.573761,21.104158 265.123810,21.066978 264.337769,20.980869 
	C265.489655,20.713400 266.977631,20.494860 268.702026,20.490625 
	C268.208740,20.806581 267.479095,20.908232 266.386536,21.075609 
z"/>
<path fill="#5C67D0" opacity="1.000000" stroke="none" 
	d="
M103.325684,44.880650 
	C103.528244,43.817783 104.004990,42.568130 104.813217,41.191696 
	C104.629768,42.274567 104.114822,43.484215 103.325684,44.880650 
z"/>
<path fill="#E0DCE8" opacity="1.000000" stroke="none" 
	d="
M167.182037,35.192333 
	C166.069794,35.816189 164.957535,36.440044 163.495361,37.114037 
	C163.145447,37.164169 162.983292,36.969456 163.114685,36.625618 
	C164.444611,35.801376 165.643143,35.320972 166.927231,34.928062 
	C167.012787,35.015556 167.182037,35.192333 167.182037,35.192333 
z"/>
<path fill="#E1E1F0" opacity="1.000000" stroke="none" 
	d="
M264.986938,41.448681 
	C264.182098,41.847595 263.316864,41.847595 262.451599,41.847595 
	C262.163361,41.469749 261.875092,41.091908 261.586853,40.714062 
	C262.308105,40.416763 263.029388,40.119465 264.025452,39.698040 
	C264.509003,40.065865 264.717773,40.557816 264.986938,41.448681 
z"/>
<path fill="#5C67D0" opacity="1.000000" stroke="none" 
	d="
M113.256325,25.981010 
	C113.469078,25.193853 113.925148,24.247047 114.676422,23.153339 
	C114.977707,23.183071 114.983772,23.359703 114.998169,23.801331 
	C114.504219,24.651337 114.001930,25.236351 113.256325,25.981010 
z"/>
<path fill="#5C67D0" opacity="1.000000" stroke="none" 
	d="
M108.440475,34.113022 
	C108.582779,33.289043 109.012100,32.287479 109.736778,31.134285 
	C109.597260,31.966917 109.162376,32.951176 108.440475,34.113022 
z"/>
<path fill="#5C67D0" opacity="1.000000" stroke="none" 
	d="
M110.996925,27.432640 
	C111.284866,27.088619 111.525146,27.093922 112.122314,27.154736 
	C111.903862,28.169559 111.328514,29.128874 110.467491,30.291965 
	C110.437622,29.591150 110.693443,28.686558 110.996925,27.432640 
z"/>
<path fill="#4F5DCE" opacity="1.000000" stroke="none" 
	d="
M212.717804,31.166821 
	C212.741684,31.818150 212.492416,32.603371 212.114258,33.674400 
	C211.781525,33.945732 211.577637,33.931259 211.073471,33.852428 
	C211.330338,32.958950 211.887497,32.129833 212.717804,31.166821 
z"/>
<path fill="#4A58D9" opacity="1.000000" stroke="none" 
	d="
M149.592926,22.870140 
	C149.157181,23.529457 148.408035,24.246885 147.327438,24.985804 
	C147.757172,24.314278 148.518356,23.621264 149.592926,22.870140 
z"/>
<path fill="#E0DCE8" opacity="1.000000" stroke="none" 
	d="
M167.209839,33.065861 
	C167.614746,33.079639 168.019638,33.093414 168.724915,33.059219 
	C168.607864,33.666740 168.190430,34.322231 167.477509,35.085026 
	C167.182037,35.192333 167.012787,35.015556 166.993195,34.633453 
	C167.052353,33.856190 167.131104,33.461025 167.209839,33.065861 
z"/>
<path fill="#4F5DCE" opacity="1.000000" stroke="none" 
	d="
M209.413727,23.976955 
	C209.109024,23.426416 209.033203,22.679728 208.948318,21.558983 
	C209.173721,22.050220 209.408173,22.915512 209.413727,23.976955 
z"/>
<path fill="#6065D1" opacity="1.000000" stroke="none" 
	d="
M219.267365,42.869659 
	C219.189972,42.461224 219.356964,41.883148 219.804688,41.168289 
	C219.894180,41.587677 219.702957,42.143848 219.267365,42.869659 
z"/>
<path fill="#4F5DCE" opacity="1.000000" stroke="none" 
	d="
M205.246796,29.996998 
	C204.986511,29.678917 204.970322,29.204159 204.962769,28.373894 
	C205.204269,28.056620 205.437119,28.094849 206.003723,28.255215 
	C206.055283,28.865007 205.773102,29.352661 205.246796,29.996998 
z"/>
<path fill="#F2F3F9" opacity="1.000000" stroke="none" 
	d="
M249.499481,43.144196 
	C249.698242,43.331131 249.603653,43.566475 249.191681,43.827007 
	C249.044891,43.648705 249.155502,43.428841 249.499481,43.144196 
z"/>
<path fill="#F2F3F9" opacity="1.000000" stroke="none" 
	d="
M250.027679,50.698296 
	C249.945770,50.954426 249.757568,50.970875 249.286163,50.994904 
	C249.007462,50.815548 249.011932,50.628616 249.060944,50.163033 
	C249.377457,50.075794 249.649429,50.267208 250.027679,50.698296 
z"/>
<path fill="#EBECF9" opacity="1.000000" stroke="none" 
	d="
M187.924606,19.868309 
	C187.957703,20.055428 187.477463,19.937044 187.253754,19.831541 
	C187.317184,19.711088 187.604355,19.696138 187.924606,19.868309 
z"/>
<path fill="#5C67D0" opacity="1.000000" stroke="none" 
	d="
M102.549667,46.158287 
	C102.405556,45.950809 102.495804,45.614574 102.829308,45.152935 
	C102.976387,45.361530 102.880203,45.695530 102.549667,46.158287 
z"/>
<path fill="#4554D9" opacity="1.000000" stroke="none" 
	d="
M218.590851,24.850956 
	C218.675919,25.082123 218.497360,25.401775 218.041656,25.792543 
	C217.952072,25.555588 218.139648,25.247515 218.590851,24.850956 
z"/>
<path fill="#CDCFEF" opacity="1.000000" stroke="none" 
	d="
M179.342926,50.918789 
	C179.055176,50.769516 179.051636,50.594040 179.072083,50.156029 
	C179.404297,50.008698 179.712509,50.123905 180.097900,50.485744 
	C179.992432,50.785778 179.809784,50.839184 179.342926,50.918789 
z"/>
<path fill="#4554D9" opacity="1.000000" stroke="none" 
	d="
M219.634033,23.816223 
	C219.710007,24.035334 219.521469,24.367624 219.048523,24.785744 
	C218.965912,24.557514 219.167725,24.243458 219.634033,23.816223 
z"/>
<path fill="#EBECF9" opacity="1.000000" stroke="none" 
	d="
M194.706207,19.015469 
	C194.838760,19.248747 194.686386,19.450544 194.229126,19.578239 
	C194.134308,19.351377 194.299988,19.177996 194.706207,19.015469 
z"/>
<path fill="#6065D1" opacity="1.000000" stroke="none" 
	d="
M215.203354,42.236458 
	C215.423080,42.158878 215.577423,42.323116 215.674622,42.516121 
	C215.706650,42.579716 215.590912,42.717712 215.397461,42.914520 
	C215.206696,42.834724 215.161194,42.662102 215.203354,42.236458 
z"/>
<path fill="#6065D1" opacity="1.000000" stroke="none" 
	d="
M224.772675,40.102779 
	C224.956039,40.397991 224.775635,40.659630 224.265167,40.938957 
	C224.196716,40.732311 224.354630,40.436501 224.772675,40.102779 
z"/>
<path fill="#F2F3F9" opacity="1.000000" stroke="none" 
	d="
M247.531708,37.549149 
	C247.477371,37.581322 247.586044,37.516979 247.531708,37.549149 
z"/>
<path fill="#F2F3F9" opacity="1.000000" stroke="none" 
	d="
M275.975220,19.077469 
	C276.036865,19.350134 275.812775,19.515987 275.296875,19.537224 
	C275.259216,19.272453 275.487335,19.131804 275.975220,19.077469 
z"/>
<path fill="#F2F3F9" opacity="1.000000" stroke="none" 
	d="
M252.882812,27.515453 
	C252.624008,27.094841 252.796402,26.841494 253.334015,26.624012 
	C253.435638,26.908852 253.307220,27.249798 252.882812,27.515453 
z"/>
<path fill="#4A58D9" opacity="1.000000" stroke="none" 
	d="
M150.752014,22.056530 
	C150.797150,22.298983 150.569748,22.551235 150.083649,22.845181 
	C150.043121,22.613358 150.261292,22.339842 150.752014,22.056530 
z"/>
<path fill="#3D4FE3" opacity="1.000000" stroke="none" 
	d="
M121.646919,32.921238 
	C121.897148,33.170971 121.776833,33.463844 121.337540,33.844826 
	C121.224152,33.659271 121.310089,33.336418 121.646919,32.921238 
z"/>
<path fill="#DEE0F6" opacity="1.000000" stroke="none" 
	d="
M198.665222,35.761406 
	C198.902451,36.038479 198.777588,36.342598 198.805420,36.503944 
	C195.924652,38.994984 193.016052,41.324677 190.107468,43.654369 
	C190.996185,37.116432 193.757919,33.888317 198.665222,35.761406 
z"/>
<path fill="#DBDAF6" opacity="1.000000" stroke="none" 
	d="
M201.980835,27.959728 
	C199.880310,28.786415 197.805756,29.639631 195.720795,30.497120 
	C196.690323,25.944454 196.690323,25.944454 205.004196,24.929541 
	C204.107712,25.746983 203.211227,26.564423 202.131744,27.664097 
	C201.948761,27.946331 202.006790,27.986258 201.980835,27.959728 
z"/>
<path fill="#CDCFEF" opacity="1.000000" stroke="none" 
	d="
M179.064728,49.586967 
	C178.629471,49.952133 178.163605,49.988571 177.347672,50.011051 
	C177.025223,49.552616 177.052872,49.108135 177.043030,48.331173 
	C177.408615,47.992401 177.811676,47.986115 178.515991,47.968571 
	C178.889526,48.390957 178.961823,48.824596 179.064728,49.586967 
z"/>
<path fill="#F0F1FB" opacity="1.000000" stroke="none" 
	d="
M133.245453,42.700890 
	C130.696472,44.989033 128.252441,46.949768 125.460220,48.907932 
	C124.797523,48.443737 124.483017,47.982113 124.115387,46.830002 
	C124.140793,43.852772 124.219322,41.566032 124.297844,39.279293 
	C124.297844,39.279293 124.185959,39.286556 124.488991,39.125057 
	C125.212830,38.326283 125.633636,37.689007 126.054443,37.051731 
	C126.054443,37.051731 126.010414,36.998001 126.441864,37.023163 
	C128.217194,36.761055 129.561081,36.473789 131.145020,36.135208 
	C131.145020,34.268322 131.145020,32.657051 131.145020,31.045784 
	C131.145020,31.045784 131.045944,31.042648 131.313263,30.876694 
	C131.723038,30.121256 131.865524,29.531776 132.007996,28.942295 
	C132.007996,28.942295 132.211807,28.776033 132.491333,28.497141 
	C132.924210,27.867826 133.077576,27.517406 133.230957,27.166988 
	C133.230957,27.166988 133.057632,27.113043 133.384781,27.087463 
	C133.871033,26.757164 134.030136,26.452444 134.189240,26.147724 
	C134.189240,26.147728 134.088486,26.114332 134.406219,26.138105 
	C135.180328,25.806797 135.636688,25.451717 136.093063,25.096638 
	C136.093063,25.096636 136.003098,25.031490 136.256195,25.125172 
	C136.509308,25.218855 136.957260,25.117401 136.957260,25.117401 
	C137.156937,25.311039 137.375946,25.479532 137.796692,25.718678 
	C139.356384,32.150410 136.744324,37.371223 133.245453,42.700890 
z"/>
<path fill="#5B66D0" opacity="1.000000" stroke="none" 
	d="
M130.863571,31.227211 
	C131.145020,32.657051 131.145020,34.268322 131.145020,36.135208 
	C129.561081,36.473789 128.217194,36.761055 126.450523,37.056740 
	C127.545868,35.179649 129.063995,33.294144 130.863571,31.227211 
z"/>
<path fill="#5B66D0" opacity="1.000000" stroke="none" 
	d="
M123.972183,39.228840 
	C124.219322,41.566032 124.140793,43.852772 124.003296,46.571854 
	C123.845055,44.395592 123.745789,41.786991 123.972183,39.228840 
z"/>
<path fill="#5B66D0" opacity="1.000000" stroke="none" 
	d="
M125.710342,37.063133 
	C125.633636,37.689007 125.212830,38.326283 124.537231,39.096504 
	C124.643715,38.511147 125.004974,37.792843 125.710342,37.063133 
z"/>
<path fill="#5B66D0" opacity="1.000000" stroke="none" 
	d="
M131.739731,29.120472 
	C131.865524,29.531776 131.723038,30.121256 131.348846,30.911184 
	C131.235245,30.507305 131.353363,29.902977 131.739731,29.120472 
z"/>
<path fill="#5B66D0" opacity="1.000000" stroke="none" 
	d="
M135.771057,25.059914 
	C135.636688,25.451717 135.180328,25.806797 134.425232,26.187653 
	C134.567352,25.816683 135.008209,25.419935 135.771057,25.059914 
z"/>
<path fill="#5B66D0" opacity="1.000000" stroke="none" 
	d="
M133.918869,26.206064 
	C134.030136,26.452444 133.871033,26.757164 133.458328,27.140648 
	C133.352646,26.901075 133.500580,26.582741 133.918869,26.206064 
z"/>
<path fill="#5B66D0" opacity="1.000000" stroke="none" 
	d="
M132.938965,27.275753 
	C133.077576,27.517406 132.924210,27.867826 132.515656,28.367897 
	C132.389297,28.139872 132.518143,27.762196 132.938965,27.275753 
z"/>
<path fill="#5B66D0" opacity="1.000000" stroke="none" 
	d="
M136.891266,24.935272 
	C136.957260,25.117401 136.509308,25.218855 136.284058,25.173214 
	C136.314316,25.002760 136.569794,24.877951 136.891266,24.935272 
z"/>
<path fill="#EFF0F6" opacity="1.000000" stroke="none" 
	d="
M148.402695,32.234917 
	C148.008301,31.436314 148.010406,30.575277 148.077209,29.400970 
	C153.242920,24.793591 159.719315,23.728006 164.804535,26.947844 
	C165.052582,27.675707 165.123169,27.831072 165.193741,27.986435 
	C165.178192,28.442348 165.162643,28.898264 164.992279,29.986355 
	C161.558090,32.452602 158.278732,34.286674 154.999374,36.120747 
	C154.212341,35.004539 153.425323,33.888329 152.215500,32.172485 
	C151.671906,32.172485 150.235550,32.172485 148.402695,32.234917 
z"/>
<path fill="#4F5CD0" opacity="1.000000" stroke="none" 
	d="
M155.004486,36.460312 
	C158.278732,34.286674 161.558090,32.452602 165.024475,30.327225 
	C165.693649,31.085251 166.175781,32.134586 166.933868,33.124889 
	C167.131104,33.461025 167.052353,33.856190 166.907639,34.545963 
	C165.643143,35.320972 164.444611,35.801376 163.034485,36.527550 
	C160.496399,37.187366 158.169907,37.601421 155.454758,38.086311 
	C155.047272,37.704723 155.028427,37.252296 155.004486,36.460312 
z"/>
<path fill="#4F5CD0" opacity="1.000000" stroke="none" 
	d="
M165.336105,27.887947 
	C165.123169,27.831072 165.052582,27.675707 165.045883,27.272766 
	C165.232651,27.279945 165.355560,27.534704 165.336105,27.887947 
z"/>
</svg>